<?xml version="1.0" encoding="UTF-8"?>
<svg xmlns="http://www.w3.org/2000/svg" version="1.1" xmlns:xlink="http://www.w3.org/1999/xlink" viewBox="0 0 7000 4000">
  <defs>
    <clipPath id="clippath">
      <polygon points="2018.062 3346.98 0 1623.803 1376.035 4000 2782.832 4000 2018.062 3346.98" style="clip-rule: evenodd; fill: none;"/>
    </clipPath>
    <linearGradient id="linear-gradient" x1="1554.41" y1="2324.445" x2="1055.155" y2="3817.541" gradientUnits="userSpaceOnUse">
      <stop offset="0" stop-color="#0ca61e"/>
      <stop offset="1" stop-color="#000"/>
    </linearGradient>
    <clipPath id="clippath-1">
      <path d="M1376.035,4000C939.382,3647.4,409.683,3219.759,0,2889.314v1110.686h1376.035Z" style="clip-rule: evenodd; fill: none;"/>
    </clipPath>
    <linearGradient id="linear-gradient-2" x1="722.038" y1="3371.25" x2="-174.287" y2="5305.277" xlink:href="#linear-gradient"/>
    <clipPath id="clippath-2">
      <path d="M0,2889.314c409.683,330.445,939.382,758.086,1376.035,1110.686L0,1623.803v1265.511Z" style="clip-rule: evenodd; fill: none;"/>
    </clipPath>
    <linearGradient id="linear-gradient-3" x1="682.002" y1="2834.382" x2="362.386" y2="4028.859" xlink:href="#linear-gradient"/>
    <clipPath id="clippath-3">
      <polygon points="0 1623.803 2018.062 3346.98 0 0 0 1623.803" style="clip-rule: evenodd; fill: none;"/>
    </clipPath>
    <linearGradient id="linear-gradient-4" x1="1203.453" y1="1227.236" x2="590.35" y2="2634.48" xlink:href="#linear-gradient"/>
    <clipPath id="clippath-4">
      <polygon points="0 0 2018.062 3346.98 2782.832 4000 952.447 0 0 0" style="clip-rule: evenodd; fill: none;"/>
    </clipPath>
    <linearGradient id="linear-gradient-5" x1="2442.805" y1="255.626" x2="1042.56" y2="2578.791" xlink:href="#linear-gradient"/>
    <clipPath id="clippath-5">
      <polygon points="4981.948 653.033 7000 2376.202 5623.98 0 4217.182 0 4981.948 653.033" style="clip-rule: evenodd; fill: none;"/>
    </clipPath>
    <linearGradient id="linear-gradient-6" x1="5445.66" y1="1675.374" x2="5944.912" y2="182.277" xlink:href="#linear-gradient"/>
    <clipPath id="clippath-6">
      <path d="M5623.98,0c436.654,352.599,966.353,780.26,1376.02,1110.7V0h-1376.02Z" style="clip-rule: evenodd; fill: none;"/>
    </clipPath>
    <linearGradient id="linear-gradient-7" x1="6278.051" y1="628.581" x2="7174.374" y2="-1305.445" xlink:href="#linear-gradient"/>
    <clipPath id="clippath-7">
      <path d="M7000,1110.7C6590.332,780.26,6060.633,352.599,5623.98,0l1376.02,2376.202v-1265.501Z" style="clip-rule: evenodd; fill: none;"/>
    </clipPath>
    <linearGradient id="linear-gradient-8" x1="6318.043" y1="1165.513" x2="6638.125" y2="-28.965" xlink:href="#linear-gradient"/>
    <clipPath id="clippath-8">
      <polygon points="7000 2376.202 4981.948 653.019 7000 4000 7000 2376.202" style="clip-rule: evenodd; fill: none;"/>
    </clipPath>
    <linearGradient id="linear-gradient-9" x1="5796.501" y1="2773.029" x2="6409.602" y2="1365.318" xlink:href="#linear-gradient"/>
    <clipPath id="clippath-9">
      <polygon points="7000 4000 4981.938 653.033 4217.182 0 6047.562 4000 7000 4000" style="clip-rule: evenodd; fill: none;"/>
    </clipPath>
    <linearGradient id="linear-gradient-10" x1="4557.267" y1="3744.618" x2="5957.511" y2="1420.986" xlink:href="#linear-gradient"/>
  </defs>
  <!-- Generator: Adobe Illustrator 28.7.7, SVG Export Plug-In . SVG Version: 1.2.0 Build 194)  -->
  <g>
    <g id="Layer_1">
      <g>
        <rect y=".014" width="7000" height="3999.986"/>
        <g style="clip-path: url(#clippath);">
          <rect y="1623.803" width="2782.832" height="2376.197" style="fill: url(#linear-gradient);"/>
        </g>
        <g style="clip-path: url(#clippath-1);">
          <rect y="2889.314" width="1376.035" height="1110.686" style="fill: url(#linear-gradient-2);"/>
        </g>
        <g style="clip-path: url(#clippath-2);">
          <rect y="1623.803" width="1376.035" height="2376.197" style="fill: url(#linear-gradient-3);"/>
        </g>
        <g style="clip-path: url(#clippath-3);">
          <rect y="0" width="2018.062" height="3346.98" style="fill: url(#linear-gradient-4);"/>
        </g>
        <g style="clip-path: url(#clippath-4);">
          <rect y="0" width="2782.832" height="4000" style="fill: url(#linear-gradient-5);"/>
        </g>
        <g style="clip-path: url(#clippath-5);">
          <rect x="4217.182" y="0" width="2782.818" height="2376.202" style="fill: url(#linear-gradient-6);"/>
        </g>
        <g style="clip-path: url(#clippath-6);">
          <rect x="5623.98" y="0" width="1376.02" height="1110.7" style="fill: url(#linear-gradient-7);"/>
        </g>
        <g style="clip-path: url(#clippath-7);">
          <rect x="5623.98" y="0" width="1376.02" height="2376.202" style="fill: url(#linear-gradient-8);"/>
        </g>
        <g style="clip-path: url(#clippath-8);">
          <rect x="4981.948" y="653.019" width="2018.052" height="3346.981" style="fill: url(#linear-gradient-9);"/>
        </g>
        <g style="clip-path: url(#clippath-9);">
          <rect x="4217.182" y="0" width="2782.818" height="4000" style="fill: url(#linear-gradient-10);"/>
        </g>
      </g>
    </g>
  </g>
</svg>